<?xml version="1.0" ?><!-- Uploaded to: SVG Repo, www.svgrepo.com, Generator: SVG Repo Mixer Tools -->
<svg width="800px" height="800px" viewBox="0 0 1000 1000" id="Layer_2" version="1.1" xml:space="preserve" xmlns="http://www.w3.org/2000/svg" xmlns:xlink="http://www.w3.org/1999/xlink"><path d="M748.695,479.08c3.695,0,6.702-3.006,6.702-6.702v-4.322c0-2.34-1.188-4.471-3.178-5.701  l-56.117-34.68c-1.06-0.654-2.278-1.001-3.523-1.001h-11.17h-16.026h-130.97l-14.094,52.405h158.655H695H748.695z" style="fill:#231F20;"/><path d="M366.785,479.08h135.929l14.094-52.405H410.962l-57.328,40.872l8.112,9.25  C363.018,478.248,364.855,479.08,366.785,479.08z" style="fill:#231F20;"/><path d="M348.967,488.01l-13.69-15.61l-133.59,7.67c-13.29,0.76-24.5,10.19-27.52,23.16l-5.31,22.79  c-0.96,4.12-4.17,7.27-8.25,8.36c-4.91,1.32-8.33,5.77-8.33,10.86v13.93c0,6.21,5.03,11.24,11.24,11.24h36.39  c0.26,28.12,23.14,50.84,51.32,50.84s51.07-22.72,51.33-50.84h388.68c0.26,28.12,23.15,50.84,51.33,50.84  c28.18,0,51.06-22.72,51.32-50.84h30.73c8.93,0,16.43-6.73,17.38-15.61l5.64-52.66c0.17-1.59,0.09-3.19-0.25-4.74l-16.12-74.14  c-0.87-4.02-3.31-7.52-6.77-9.74l-50.98-32.67c-2.14-1.37-4.63-2.1-7.18-2.1h-264.47c-2.88,0-5.72,0.7-8.27,2.04l-55.1,28.89h254.08  c4.41,0,8.71,1.22,12.46,3.53l56.12,34.68c7.04,4.35,11.24,11.89,11.24,20.17v4.32c0,13.09-10.61,23.7-23.7,23.7h-381.91  C359.957,496.08,353.467,493.14,348.967,488.01z M203.197,511.57l-6.48,14.17c-0.67,1.47-2.01,2.51-3.6,2.8l-6.82,1.25  c-3.74,0.69-6.81-2.93-5.54-6.5l5.47-15.43c0.7-1.96,2.57-3.28,4.65-3.28h7.84C202.307,504.58,204.697,508.3,203.197,511.57z   M277.557,570.41c-0.26,14.29-11.98,25.84-26.33,25.84c-14.35,0-26.06-11.55-26.32-25.84c-0.01-0.16-0.01-0.33-0.01-0.5  c0-14.52,11.81-26.33,26.33-26.33c14.52,0,26.34,11.81,26.34,26.33C277.567,570.08,277.567,570.25,277.557,570.41z M821.487,500.76  c0.05-0.77,0.33-1.5,0.81-2.11l4.14-5.21c1.82-2.29,5.44-1.73,6.49,1l2.65,6.97c0.21,0.55,0.29,1.14,0.23,1.72l-2.28,22.85  c-0.18,1.72-1.5,3.11-3.21,3.36l-6.14,0.9c-2.38,0.35-4.47-1.58-4.32-3.98L821.487,500.76z M742.567,543.58  c14.52,0,26.33,11.81,26.33,26.33c0,0.17,0,0.34-0.01,0.5c-0.26,14.29-11.97,25.84-26.32,25.84c-14.35,0-26.07-11.55-26.33-25.84  c-0.01-0.16-0.01-0.33-0.01-0.5C716.227,555.39,728.047,543.58,742.567,543.58z" style="fill:#231F20;"/><path d="M251.227,557.25c-6.99,0-12.66,5.67-12.66,12.66c0,0.17,0,0.34,0.02,0.5  c0.25,6.77,5.82,12.17,12.64,12.17c6.83,0,12.4-5.4,12.65-12.17c0.02-0.16,0.02-0.33,0.02-0.5  C263.897,562.92,258.227,557.25,251.227,557.25z" style="fill:#231F20;"/><path d="M742.567,582.58c6.82,0,12.39-5.4,12.64-12.17c0.02-0.16,0.02-0.33,0.02-0.5  c0-6.99-5.67-12.66-12.66-12.66c-7,0-12.67,5.67-12.67,12.66c0,0.17,0,0.34,0.02,0.5C730.167,577.18,735.737,582.58,742.567,582.58z  " style="fill:#231F20;"/></svg>